<?xml version="1.0" encoding="utf-8"?>
<!-- Generator: Adobe Illustrator 23.0.2, SVG Export Plug-In . SVG Version: 6.00 Build 0)  -->
<svg version="1.1" id="Layer_1" xmlns="http://www.w3.org/2000/svg" xmlns:xlink="http://www.w3.org/1999/xlink" x="0px" y="0px"
	 viewBox="0 0 395.13 344.82" style="enable-background:new 0 0 395.13 344.82;" xml:space="preserve">
<style type="text/css">
	.st0{fill:#CCCCCC;}
	.st1{fill:#FE9800;}
</style>
<g>
	<path class="st0" d="M1.83,206.25c-1.01,0-1.83-0.82-1.83-1.83V140.4c0-1.01,0.82-1.83,1.83-1.83c1.01,0,1.83,0.82,1.83,1.83v64.03
		C3.66,205.43,2.84,206.25,1.83,206.25z"/>
	<path class="st0" d="M14.63,216.31c-1.01,0-1.83-0.82-1.83-1.83v-84.15c0-1.01,0.82-1.83,1.83-1.83s1.83,0.82,1.83,1.83v84.15
		C16.46,215.5,15.64,216.31,14.63,216.31z"/>
	<path class="st0" d="M27.44,222.72c-1.01,0-1.83-0.82-1.83-1.83v-96.95c0-1.01,0.82-1.83,1.83-1.83s1.83,0.82,1.83,1.83v96.95
		C29.27,221.9,28.45,222.72,27.44,222.72z"/>
	<path class="st0" d="M40.24,239.18c-1.01,0-1.83-0.82-1.83-1.83V107.47c0-1.01,0.82-1.83,1.83-1.83s1.83,0.82,1.83,1.83v129.88
		C42.07,238.36,41.25,239.18,40.24,239.18z"/>
	<path class="st0" d="M53.05,263.88c-1.01,0-1.83-0.82-1.83-1.83V82.78c0-1.01,0.82-1.83,1.83-1.83s1.83,0.82,1.83,1.83v179.27
		C54.88,263.06,54.06,263.88,53.05,263.88z"/>
	<path class="st0" d="M65.85,239.18c-1.01,0-1.83-0.82-1.83-1.83V107.47c0-1.01,0.82-1.83,1.83-1.83s1.83,0.82,1.83,1.83v129.88
		C67.68,238.36,66.86,239.18,65.85,239.18z"/>
	<path class="st0" d="M78.66,251.07c-1.01,0-1.83-0.82-1.83-1.83V95.58c0-1.01,0.82-1.83,1.83-1.83s1.83,0.82,1.83,1.83v153.66
		C80.49,250.25,79.67,251.07,78.66,251.07z"/>
	<path class="st0" d="M91.47,219.97c-1.01,0-1.83-0.82-1.83-1.83v-91.46c0-1.01,0.82-1.83,1.83-1.83s1.83,0.82,1.83,1.83v91.46
		C93.29,219.15,92.48,219.97,91.47,219.97z"/>
	<path class="st0" d="M104.27,227.29c-1.01,0-1.83-0.82-1.83-1.83v-106.1c0-1.01,0.82-1.83,1.83-1.83s1.83,0.82,1.83,1.83v106.1
		C106.1,226.47,105.28,227.29,104.27,227.29z"/>
	<path class="st0" d="M117.07,206.25c-1.01,0-1.83-0.82-1.83-1.83V140.4c0-1.01,0.82-1.83,1.83-1.83s1.83,0.82,1.83,1.83v64.03
		C118.9,205.43,118.08,206.25,117.07,206.25z"/>
	<path class="st0" d="M128.05,206.25c-1.01,0-1.83-0.82-1.83-1.83V140.4c0-1.01,0.82-1.83,1.83-1.83s1.83,0.82,1.83,1.83v64.03
		C129.88,205.43,129.06,206.25,128.05,206.25z"/>
	<path class="st0" d="M140.86,216.31c-1.01,0-1.83-0.82-1.83-1.83v-84.15c0-1.01,0.82-1.83,1.83-1.83s1.83,0.82,1.83,1.83v84.15
		C142.68,215.5,141.87,216.31,140.86,216.31z"/>
	<path class="st0" d="M153.66,222.72c-1.01,0-1.83-0.82-1.83-1.83v-96.95c0-1.01,0.82-1.83,1.83-1.83s1.83,0.82,1.83,1.83v96.95
		C155.49,221.9,154.67,222.72,153.66,222.72z"/>
	<path class="st0" d="M166.47,239.18c-1.01,0-1.83-0.82-1.83-1.83V107.47c0-1.01,0.82-1.83,1.83-1.83s1.83,0.82,1.83,1.83v129.88
		C168.3,238.36,167.48,239.18,166.47,239.18z"/>
	<path class="st0" d="M179.27,293.14c-1.01,0-1.83-0.82-1.83-1.83V53.51c0-1.01,0.82-1.83,1.83-1.83s1.83,0.82,1.83,1.83v237.81
		C181.1,292.33,180.28,293.14,179.27,293.14z"/>
	<path class="st0" d="M192.08,239.18c-1.01,0-1.83-0.82-1.83-1.83V107.47c0-1.01,0.82-1.83,1.83-1.83s1.83,0.82,1.83,1.83v129.88
		C193.9,238.36,193.09,239.18,192.08,239.18z"/>
	<path class="st0" d="M204.88,251.07c-1.01,0-1.83-0.82-1.83-1.83V95.58c0-1.01,0.82-1.83,1.83-1.83s1.83,0.82,1.83,1.83v153.66
		C206.71,250.25,205.89,251.07,204.88,251.07z"/>
	<path class="st0" d="M217.69,219.97c-1.01,0-1.83-0.82-1.83-1.83v-91.46c0-1.01,0.82-1.83,1.83-1.83s1.83,0.82,1.83,1.83v91.46
		C219.52,219.15,218.7,219.97,217.69,219.97z"/>
	<path class="st0" d="M230.49,227.29c-1.01,0-1.83-0.82-1.83-1.83v-106.1c0-1.01,0.82-1.83,1.83-1.83s1.83,0.82,1.83,1.83v106.1
		C232.32,226.47,231.5,227.29,230.49,227.29z"/>
	<path class="st0" d="M243.3,206.25c-1.01,0-1.83-0.82-1.83-1.83V140.4c0-1.01,0.82-1.83,1.83-1.83s1.83,0.82,1.83,1.83v64.03
		C245.13,205.43,244.31,206.25,243.3,206.25z"/>
	<path class="st0" d="M254.27,206.25c-1.01,0-1.83-0.82-1.83-1.83V140.4c0-1.01,0.82-1.83,1.83-1.83s1.83,0.82,1.83,1.83v64.03
		C256.1,205.43,255.28,206.25,254.27,206.25z"/>
	<path class="st0" d="M267.08,216.31c-1.01,0-1.83-0.82-1.83-1.83v-84.15c0-1.01,0.82-1.83,1.83-1.83s1.83,0.82,1.83,1.83v84.15
		C268.91,215.5,268.09,216.31,267.08,216.31z"/>
	<path class="st0" d="M279.88,222.72c-1.01,0-1.83-0.82-1.83-1.83v-96.95c0-1.01,0.82-1.83,1.83-1.83s1.83,0.82,1.83,1.83v96.95
		C281.71,221.9,280.89,222.72,279.88,222.72z"/>
	<path class="st0" d="M292.69,239.18c-1.01,0-1.83-0.82-1.83-1.83V107.47c0-1.01,0.82-1.83,1.83-1.83s1.83,0.82,1.83,1.83v129.88
		C294.52,238.36,293.7,239.18,292.69,239.18z"/>
	<path class="st0" d="M305.49,263.88c-1.01,0-1.83-0.82-1.83-1.83V82.78c0-1.01,0.82-1.83,1.83-1.83s1.83,0.82,1.83,1.83v179.27
		C307.32,263.06,306.5,263.88,305.49,263.88z"/>
	<path class="st1" d="M314.64,344.82c-1.01,0-1.83-0.82-1.83-1.83V1.83c0-1.01,0.82-1.83,1.83-1.83s1.83,0.82,1.83,1.83v341.16
		C316.47,344,315.65,344.82,314.64,344.82z"/>
	<path class="st0" d="M318.3,239.18c-1.01,0-1.83-0.82-1.83-1.83V107.47c0-1.01,0.82-1.83,1.83-1.83s1.83,0.82,1.83,1.83v129.88
		C320.13,238.36,319.31,239.18,318.3,239.18z"/>
	<path class="st0" d="M331.1,251.07c-1.01,0-1.83-0.82-1.83-1.83V95.58c0-1.01,0.82-1.83,1.83-1.83s1.83,0.82,1.83,1.83v153.66
		C332.93,250.25,332.11,251.07,331.1,251.07z"/>
	<path class="st0" d="M343.91,219.97c-1.01,0-1.83-0.82-1.83-1.83v-91.46c0-1.01,0.82-1.83,1.83-1.83s1.83,0.82,1.83,1.83v91.46
		C345.74,219.15,344.92,219.97,343.91,219.97z"/>
	<path class="st0" d="M356.71,227.29c-1.01,0-1.83-0.82-1.83-1.83v-106.1c0-1.01,0.82-1.83,1.83-1.83s1.83,0.82,1.83,1.83v106.1
		C358.54,226.47,357.72,227.29,356.71,227.29z"/>
	<path class="st0" d="M369.52,206.25c-1.01,0-1.83-0.82-1.83-1.83V140.4c0-1.01,0.82-1.83,1.83-1.83s1.83,0.82,1.83,1.83v64.03
		C371.35,205.43,370.53,206.25,369.52,206.25z"/>
	<path class="st0" d="M380.49,206.25c-1.01,0-1.83-0.82-1.83-1.83V140.4c0-1.01,0.82-1.83,1.83-1.83s1.83,0.82,1.83,1.83v64.03
		C382.32,205.43,381.5,206.25,380.49,206.25z"/>
	<path class="st0" d="M393.3,216.31c-1.01,0-1.83-0.82-1.83-1.83v-84.15c0-1.01,0.82-1.83,1.83-1.83s1.83,0.82,1.83,1.83v84.15
		C395.13,215.5,394.31,216.31,393.3,216.31z"/>
</g>
</svg>
