<svg width="854" height="481" viewBox="0 0 854 481" fill="none" xmlns="http://www.w3.org/2000/svg">
<path d="M364.946 237.62C191.479 266.917 222.318 179.796 259.322 148.186C120.549 253.039 257.015 306.237 421.231 254.581C599.414 206.823 716.34 103.953 602.375 104.124C598.611 104.13 594.946 105.993 592.643 108.971C517.897 205.568 384.896 263.062 283.994 263.062C326.398 256.894 339.507 252.268 364.946 237.62Z" fill="#F19119"/>
<mask id="mask0_4001_388" style="mask-type:alpha" maskUnits="userSpaceOnUse" x="201" y="104" width="447" height="171">
<path d="M364.946 237.62C191.479 266.917 222.318 179.796 259.322 148.186C120.549 253.039 257.015 306.237 421.231 254.581C599.414 206.823 716.34 103.953 602.375 104.124C598.611 104.13 594.946 105.993 592.643 108.971C517.897 205.568 384.896 263.062 283.994 263.062C326.398 256.894 339.507 252.268 364.946 237.62Z" fill="#004AE5"/>
</mask>
<g mask="url(#mask0_4001_388)">
<path d="M597.266 128.874C536.42 180.377 496.891 203.49 423.544 232.98L603.879 90.0873C604.857 89.3124 606.205 89.2031 607.295 89.8103L656.697 117.334C658.213 118.179 658.734 120.107 657.85 121.6L625.229 176.692C624.929 177.2 624.48 177.615 623.953 177.88C504.906 237.725 425.707 263.842 360.322 273.842C536.877 212.935 584.678 179.783 616.287 152.798C630.14 139.675 630.203 118.277 605.391 124.467C602.378 125.219 599.637 126.868 597.266 128.874Z" fill="url(#paint0_linear_4001_388)"/>
<path d="M250.073 137.379C208.183 185.95 166.808 274.613 366.491 240.69C559.893 207.834 370.089 163.335 250.073 137.379Z" fill="#180E01"/>
</g>
<path d="M284.768 80.3265C272.432 100.372 267.806 142.519 267.806 160.508C296.332 143.547 323.317 134.295 361.095 131.982C346.446 159.737 340.278 202.912 338.736 235.293C354.927 235.293 361.095 232.209 370.346 227.583V239.919C393.476 232.98 411.979 226.041 432.025 213.706C440.505 175.157 449.757 154.34 464.406 124.272C616.288 103.456 576.969 62.5936 517.603 52.571C448.986 39.4646 341.049 54.884 284.768 80.3265Z" fill="#180E01"/>
<mask id="mask1_4001_388" style="mask-type:alpha" maskUnits="userSpaceOnUse" x="267" y="47" width="304" height="193">
<path d="M284.768 80.3265C272.432 100.372 267.806 142.519 267.806 160.508C296.332 143.547 323.317 134.295 361.095 131.982C346.446 159.737 340.278 202.912 338.736 235.293C354.927 235.293 361.095 232.209 370.346 227.583V239.919C393.476 232.98 411.979 226.041 432.025 213.706C440.505 175.157 449.757 154.34 464.406 124.272C616.288 103.456 576.969 62.5936 517.603 52.571C448.986 39.4646 341.049 54.884 284.768 80.3265Z" fill="#004AE5"/>
</mask>
<g mask="url(#mask1_4001_388)">
<path d="M558.897 99.6295C494.486 60.416 327.327 93.4784 265.217 163.447L275.185 71.1805C359.021 50.1642 451.546 15.0514 555.063 55.8025C582.667 89.6335 571.165 97.3228 558.897 99.6295Z" fill="#F19119"/>
<mask id="mask2_4001_388" style="mask-type:alpha" maskUnits="userSpaceOnUse" x="265" y="37" width="308" height="127">
<path d="M558.897 99.6295C494.486 60.416 327.327 93.4784 265.217 163.447L275.185 71.1805C359.021 50.1642 451.546 15.0514 555.063 55.8025C582.667 89.6335 571.165 97.3228 558.897 99.6295Z" fill="#5A91F6"/>
</mask>
<g mask="url(#mask2_4001_388)">
<path opacity="0.25" d="M443.891 81.1655C348.289 92.7302 301.003 129.737 299.718 144.386C406.884 87.3204 490.149 81.9365 561.079 100.44C545.403 79.3665 490.149 73.4557 443.891 81.1655Z" fill="white"/>
</g>
<path d="M422.773 108.852C422.773 108.852 461.322 104.227 474.429 104.227C448.986 149.714 435.109 218.331 435.109 218.331L384.224 238.377L370.347 239.919C374.973 194.432 387.54 156.653 392.705 137.379C398.102 119.646 410.438 110.395 422.773 108.852Z" fill="#F19119"/>
<mask id="mask3_4001_388" style="mask-type:alpha" maskUnits="userSpaceOnUse" x="370" y="104" width="105" height="136">
<path d="M422.773 108.852C422.773 108.852 461.322 104.227 474.429 104.227C448.986 149.714 435.109 218.331 435.109 218.331L384.224 238.377L370.347 239.919C374.973 194.432 387.54 156.653 392.705 137.379C398.102 119.646 410.438 110.395 422.773 108.852Z" fill="#004AE5"/>
</mask>
<g mask="url(#mask3_4001_388)">
<path opacity="0.25" d="M425.906 105.242C428.607 104.021 431.124 103.425 433.291 103.311L425.906 105.242C416.435 109.524 404.699 121.484 397.826 147.257C388.74 181.328 383.372 208.707 375.88 246.92L375.467 249.026H360.819L383.177 116.418L425.906 105.242Z" fill="white"/>
</g>
</g>
<path d="M350.299 280.781C378.056 278.468 395.018 276.155 422.771 262.277C422.771 262.277 414.291 297.742 432.794 297.742C451.298 297.742 482.137 263.819 492.159 253.796C524.542 230.667 553.838 220.644 553.838 220.644C553.838 220.644 506.808 309.307 428.939 324.726C384.995 336.501 354.156 302.368 350.299 280.781Z" fill="#F19119"/>
<mask id="mask4_4001_388" style="mask-type:alpha" maskUnits="userSpaceOnUse" x="350" y="220" width="204" height="108">
<path d="M350.299 280.781C378.056 278.468 395.018 276.155 422.771 262.277C422.771 262.277 414.291 297.742 432.794 297.742C451.298 297.742 482.137 263.819 492.159 253.796C524.542 230.667 553.838 220.644 553.838 220.644C553.838 220.644 506.808 309.307 428.939 324.726C384.995 336.501 354.156 302.368 350.299 280.781Z" fill="url(#paint1_linear_4001_388)"/>
</mask>
<g mask="url(#mask4_4001_388)">
<path opacity="0.25" d="M459.503 327.665C539.221 273.642 560.664 230.258 555.105 216.645C500.366 295.285 393.97 366.986 350.025 279.094C343.857 296.056 350.796 353.879 459.503 327.665Z" fill="white"/>
</g>
<path fill-rule="evenodd" clip-rule="evenodd" d="M573.677 51.3594C600.613 49.5764 608.898 75.0104 608.92 75.0781C612.775 88.9557 602.29 91.423 597.355 79.7041C592.978 69.3077 584.232 60.3677 573.162 54.1758C571.848 53.4407 572.174 51.4588 573.677 51.3594ZM561.119 24.9648C578.852 22.6515 640.456 31.1325 647.47 67.3682C652.095 91.2685 635.134 85.872 632.82 78.9336L632.761 78.7646C628.121 65.616 619.476 41.1193 564.204 32.6748C556.751 31.6468 550.326 28.0487 561.119 24.9648ZM558.285 3.39258C574.916 -3.18097 655.72 -3.06474 671.37 30.3613C681.692 52.4081 662.674 49.2004 659.988 45.1543C652.302 33.5741 619.06 4.78502 563.159 10.1162C555.681 10.9393 548.571 9.01884 558.285 3.39258Z" fill="#180E01"/>
<path d="M42.8541 395.769H9.21474L13.1005 380.226H107.912L104.027 395.769H70.0542L54.5113 457.94H27.3111L42.8541 395.769ZM116.575 459.717C109.322 459.717 103.031 458.643 97.7019 456.497C92.3729 454.351 88.3021 451.39 85.4896 447.615C82.677 443.767 81.2708 439.363 81.2708 434.404C81.2708 427.002 83.3432 420.822 87.4879 415.863C91.6327 410.83 97.1838 407.093 104.141 404.65C111.172 402.134 118.944 400.876 127.455 400.876C134.265 400.876 140.297 401.727 145.552 403.429C150.881 405.057 155.026 407.463 157.986 410.645C161.021 413.754 162.538 417.492 162.538 421.859C162.538 425.559 161.465 429.408 159.318 433.405H105.917C105.991 436.735 107.472 439.252 110.358 440.954C113.319 442.656 117.575 443.508 123.126 443.508C126.16 443.508 129.676 443.175 133.673 442.508C137.669 441.768 141.333 440.806 144.664 439.622L141.777 456.164C138.299 457.274 134.302 458.125 129.787 458.717C125.272 459.384 120.868 459.717 116.575 459.717ZM138.78 426.854C138.854 426.41 138.891 425.818 138.891 425.078C138.891 422.266 137.817 420.119 135.671 418.639C133.525 417.085 130.453 416.307 126.456 416.307C121.275 416.307 116.946 417.455 113.467 419.749C110.062 422.044 107.805 424.93 106.695 428.409L138.78 426.854ZM206.495 374.786L185.734 457.94H161.087L181.848 374.786H206.495ZM235.619 459.717C228.366 459.717 222.075 458.643 216.746 456.497C211.417 454.351 207.346 451.39 204.534 447.615C201.721 443.767 200.315 439.363 200.315 434.404C200.315 427.002 202.387 420.822 206.532 415.863C210.677 410.83 216.228 407.093 223.185 404.65C230.216 402.134 237.988 400.876 246.499 400.876C253.309 400.876 259.341 401.727 264.596 403.429C269.925 405.057 274.07 407.463 277.03 410.645C280.065 413.754 281.582 417.492 281.582 421.859C281.582 425.559 280.509 429.408 278.362 433.405H224.961C225.035 436.735 226.516 439.252 229.402 440.954C232.363 442.656 236.619 443.508 242.17 443.508C245.204 443.508 248.72 443.175 252.717 442.508C256.713 441.768 260.377 440.806 263.708 439.622L260.821 456.164C257.342 457.274 253.346 458.125 248.831 458.717C244.316 459.384 239.912 459.717 235.619 459.717ZM257.824 426.854C257.898 426.41 257.935 425.818 257.935 425.078C257.935 422.266 256.861 420.119 254.715 418.639C252.569 417.085 249.497 416.307 245.5 416.307C240.319 416.307 235.989 417.455 232.511 419.749C229.106 422.044 226.849 424.93 225.738 428.409L257.824 426.854ZM341.526 418.195C347.595 418.195 352.072 417.122 354.959 414.975C357.92 412.755 359.4 409.72 359.4 405.871C359.4 400.542 354.811 397.878 345.633 397.878H322.43L317.434 418.195H341.526ZM299.56 380.226H350.074C358.142 380.226 365.025 381.262 370.724 383.334C376.497 385.333 380.864 388.145 383.824 391.772C386.785 395.325 388.265 399.506 388.265 404.317C388.265 412.755 384.75 420.008 377.718 426.077C370.761 432.072 358.401 435.07 340.637 435.07H313.215L307.553 457.94H280.242L299.56 380.226ZM414.664 402.541V425.744H415.441C420.03 409.239 428.801 400.987 441.753 400.987C445.306 400.987 448.932 401.505 452.633 402.541L446.749 421.97C441.864 420.267 437.423 419.416 433.427 419.416C427.727 419.416 423.176 421.118 419.771 424.523C416.366 427.928 413.813 432.961 412.111 439.622V439.511L407.559 457.94H382.912L396.679 402.541H414.664ZM485.239 459.606C477.467 459.606 470.769 458.606 465.144 456.608C459.593 454.536 455.337 451.649 452.376 447.948C449.416 444.248 447.936 439.955 447.936 435.07C447.936 429.593 449.453 424.301 452.487 419.194C455.522 414.013 460.74 409.683 468.141 406.205C475.617 402.652 485.498 400.876 497.784 400.876C505.629 400.876 512.328 401.912 517.879 403.984C523.504 405.983 527.76 408.832 530.646 412.533C533.607 416.233 535.087 420.563 535.087 425.522C535.087 430.999 533.57 436.328 530.535 441.509C527.501 446.616 522.246 450.909 514.77 454.388C507.369 457.866 497.525 459.606 485.239 459.606ZM472.915 433.294C472.915 436.328 474.248 438.697 476.912 440.399C479.577 442.101 483.388 442.952 488.347 442.952C493.602 442.952 497.821 442.138 501.004 440.51C504.26 438.808 506.592 436.772 507.998 434.404C509.404 431.961 510.107 429.556 510.107 427.188C510.107 424.005 508.775 421.599 506.111 419.971C503.52 418.269 499.708 417.418 494.675 417.418C489.494 417.418 485.276 418.269 482.019 419.971C478.762 421.599 476.431 423.635 475.025 426.077C473.618 428.52 472.915 430.925 472.915 433.294Z" fill="#180E01"/>
<path d="M583.923 379.76L569.49 437.713H624.668L619.783 457.474H537.405L556.723 379.76H583.923ZM650.796 457.474H626.149L635.586 419.283H629.813L634.032 402.075H664.562L650.796 457.474ZM651.684 396.08C643.394 396.08 639.25 393.859 639.25 389.418C639.25 388.974 639.324 388.308 639.472 387.42C640.952 381.647 646.466 378.76 656.014 378.76C664.303 378.76 668.448 380.944 668.448 385.311C668.448 385.903 668.337 386.606 668.115 387.42C666.709 393.193 661.232 396.08 651.684 396.08ZM694.27 402.075L694.714 424.168H695.269C697.934 416.619 702.19 410.771 708.037 406.627C713.884 402.482 720.619 400.409 728.242 400.409C736.458 400.409 742.638 402.149 746.783 405.627C751.002 409.032 753.111 413.769 753.111 419.838C753.111 422.281 752.778 424.908 752.112 427.721L744.674 457.474H720.027L727.354 427.943C727.65 426.98 727.798 425.944 727.798 424.834C727.798 422.17 726.688 420.134 724.468 418.728C722.321 417.248 719.213 416.508 715.142 416.508C709.739 416.508 705.187 417.766 701.486 420.282C697.786 422.799 695.195 426.351 693.715 430.94L687.165 457.474H662.518L676.285 402.075H694.27ZM801.274 374.32L780.513 457.474H755.867L776.628 374.32H801.274ZM823.256 402.075H853.01L818.038 429.941L840.909 457.474H814.375L791.837 427.832L823.256 402.075Z" fill="#F19119"/>
<defs>
<linearGradient id="paint0_linear_4001_388" x1="652.524" y1="86.4942" x2="428.94" y2="269.987" gradientUnits="userSpaceOnUse">
<stop stop-color="white"/>
<stop offset="1" stop-color="white" stop-opacity="0"/>
</linearGradient>
<linearGradient id="paint1_linear_4001_388" x1="362.36" y1="306.078" x2="553.563" y2="220.5" gradientUnits="userSpaceOnUse">
<stop stop-color="#495DFA"/>
<stop offset="0.482903" stop-color="#8637EF"/>
<stop offset="1" stop-color="#7930CA"/>
</linearGradient>
</defs>
</svg>
