<svg width="1000" height="1000" viewBox="0 0 1000 1000" fill="none" xmlns="http://www.w3.org/2000/svg">
<path d="M373.534 625.422C76.6562 675.563 129.435 526.462 192.765 472.363C-44.7359 651.812 188.817 742.856 469.861 654.451C775.226 572.604 975.468 396.179 779.073 396.956C773.14 396.98 767.338 399.912 763.714 404.61C635.884 570.316 407.898 668.965 234.989 668.965C307.56 658.409 329.996 650.493 373.534 625.422Z" fill="#F19119"/>
<mask id="mask0_4001_334" style="mask-type:alpha" maskUnits="userSpaceOnUse" x="94" y="396" width="764" height="293">
<path d="M373.534 625.422C76.6562 675.563 129.435 526.462 192.765 472.363C-44.7359 651.812 188.817 742.856 469.861 654.451C775.226 572.604 975.468 396.179 779.073 396.956C773.14 396.98 767.338 399.912 763.714 404.61C635.884 570.316 407.898 668.965 234.989 668.965C307.56 658.409 329.996 650.493 373.534 625.422Z" fill="#004AE5"/>
</mask>
<g mask="url(#mask0_4001_334)">
<path d="M771.618 438.899C667.208 527.331 599.543 566.931 473.819 617.48L782.67 372.755C784.211 371.534 786.336 371.361 788.054 372.319L873.22 419.769C875.609 421.099 876.43 424.138 875.037 426.491L818.928 521.252C818.454 522.052 817.747 522.707 816.916 523.124C613.113 625.585 477.542 670.295 365.62 687.412C667.782 583.173 749.589 526.436 803.686 480.254C827.508 457.687 827.503 420.824 784.43 431.922C779.69 433.144 775.353 435.736 771.618 438.899Z" fill="url(#paint0_linear_4001_334)"/>
<path d="M176.937 453.868C105.245 536.995 34.4332 688.735 376.178 630.678C707.172 574.447 382.336 498.29 176.937 453.868Z" fill="#0A0601"/>
</g>
<path d="M236.311 356.226C215.2 390.532 207.283 462.663 207.283 493.451C256.103 464.423 302.285 448.589 366.94 444.63C341.87 492.132 331.314 566.023 328.675 621.441C356.384 621.441 366.94 616.163 382.773 608.246V629.357C422.358 617.482 454.025 605.607 488.332 584.495C502.846 518.521 518.68 482.895 543.75 431.436C803.687 395.81 736.394 325.877 634.794 308.724C517.36 286.293 332.633 312.683 236.311 356.226Z" fill="#0A0601"/>
<mask id="mask1_4001_334" style="mask-type:alpha" maskUnits="userSpaceOnUse" x="207" y="300" width="518" height="330">
<path d="M236.311 356.226C215.2 390.532 207.283 462.663 207.283 493.451C256.103 464.423 302.285 448.589 366.94 444.63C341.87 492.132 331.314 566.023 328.675 621.441C356.384 621.441 366.94 616.163 382.773 608.246V629.357C422.358 617.482 454.025 605.607 488.332 584.495C502.846 518.521 518.68 482.895 543.75 431.436C803.687 395.81 736.394 325.877 634.794 308.724C517.36 286.293 332.633 312.683 236.311 356.226Z" fill="#004AE5"/>
</mask>
<g mask="url(#mask1_4001_334)">
<path d="M705.466 389.264C595.232 322.153 309.149 378.737 202.852 498.485L219.912 340.576C363.391 304.608 521.743 244.515 698.904 314.257C746.147 372.157 726.462 385.317 705.466 389.264Z" fill="#F19119"/>
<mask id="mask2_4001_334" style="mask-type:alpha" maskUnits="userSpaceOnUse" x="202" y="282" width="527" height="217">
<path d="M705.466 389.264C595.232 322.153 309.149 378.737 202.852 498.485L219.912 340.576C363.391 304.608 521.743 244.515 698.904 314.257C746.147 372.157 726.462 385.317 705.466 389.264Z" fill="#5A91F6"/>
</mask>
<g mask="url(#mask2_4001_334)">
<path opacity="0.25" d="M508.64 357.663C345.025 377.455 264.097 440.79 261.898 465.86C445.305 368.196 587.809 358.982 709.201 390.649C682.372 354.584 587.809 344.468 508.64 357.663Z" fill="white"/>
</g>
<path d="M472.5 405.043C472.5 405.043 538.474 397.126 560.905 397.126C517.363 474.976 493.612 592.409 493.612 592.409L406.526 626.716L382.776 629.355C390.693 551.506 412.202 486.85 421.041 453.864C430.277 423.516 451.389 407.682 472.5 405.043Z" fill="#F19119"/>
<mask id="mask3_4001_334" style="mask-type:alpha" maskUnits="userSpaceOnUse" x="382" y="397" width="179" height="233">
<path d="M472.5 405.043C472.5 405.043 538.474 397.126 560.905 397.126C517.363 474.976 493.612 592.409 493.612 592.409L406.526 626.716L382.776 629.355C390.693 551.506 412.202 486.85 421.041 453.864C430.277 423.516 451.389 407.682 472.5 405.043Z" fill="#004AE5"/>
</mask>
<g mask="url(#mask3_4001_334)">
<path opacity="0.25" d="M477.861 398.871C482.483 396.781 486.79 395.761 490.499 395.565L477.861 398.871C461.652 406.198 441.565 426.668 429.803 470.776C414.254 529.086 405.067 575.944 392.245 641.342L391.538 644.947H366.468L404.733 417.997L477.861 398.871Z" fill="white"/>
</g>
</g>
<path d="M348.467 699.292C395.971 695.334 424.999 691.375 472.498 667.625C472.498 667.625 457.984 728.321 489.651 728.321C521.319 728.321 574.098 670.264 591.251 653.111C646.671 613.526 696.809 596.373 696.809 596.373C696.809 596.373 616.321 748.113 483.054 774.503C407.846 794.654 355.067 736.238 348.467 699.292Z" fill="#F19119"/>
<mask id="mask4_4001_334" style="mask-type:alpha" maskUnits="userSpaceOnUse" x="348" y="596" width="349" height="183">
<path d="M348.469 699.293C395.973 695.334 425.001 691.376 472.5 667.625C472.5 667.625 457.986 728.321 489.653 728.321C521.321 728.321 574.1 670.264 591.253 653.111C646.673 613.527 696.811 596.374 696.811 596.374C696.811 596.374 616.323 748.114 483.056 774.503C407.848 794.655 355.069 736.238 348.469 699.293Z" fill="url(#paint1_linear_4001_334)"/>
</mask>
<g mask="url(#mask4_4001_334)">
<path opacity="0.25" d="M535.361 779.531C671.792 687.075 708.492 612.826 698.977 589.527C605.294 724.114 423.206 846.826 347.996 696.405C337.44 725.433 349.315 824.394 535.361 779.531Z" fill="white"/>
</g>
<path fill-rule="evenodd" clip-rule="evenodd" d="M730.111 306.694C776.775 303.183 791.071 347.212 791.08 347.242C797.678 370.993 779.732 375.215 771.287 355.159C763.72 337.186 748.523 321.756 729.305 311.148C727.228 310.002 727.744 306.872 730.111 306.694ZM709.272 261.477C739.62 257.517 845.052 272.033 857.055 334.048C864.972 374.952 835.943 365.715 831.984 353.841L831.882 353.553C823.942 331.05 809.147 289.124 714.551 274.672C701.796 272.913 690.8 266.754 709.272 261.477ZM704.422 224.557C732.885 213.306 871.175 213.505 897.958 270.712C915.624 308.444 883.076 302.952 878.48 296.027C865.325 276.208 808.434 226.938 712.763 236.062C699.965 237.471 687.798 234.186 704.422 224.557Z" fill="#0A0601"/>
<defs>
<linearGradient id="paint0_linear_4001_334" x1="865.704" y1="366.779" x2="483.055" y2="680.815" gradientUnits="userSpaceOnUse">
<stop stop-color="white"/>
<stop offset="1" stop-color="white" stop-opacity="0"/>
</linearGradient>
<linearGradient id="paint1_linear_4001_334" x1="369.11" y1="742.588" x2="696.341" y2="596.126" gradientUnits="userSpaceOnUse">
<stop stop-color="#495DFA"/>
<stop offset="0.482903" stop-color="#8637EF"/>
<stop offset="1" stop-color="#7930CA"/>
</linearGradient>
</defs>
</svg>
