<svg width="854" height="134" viewBox="0 0 854 134" fill="none" xmlns="http://www.w3.org/2000/svg">
<path d="M42.8541 49.2943H9.21474L13.1005 33.7514H107.912L104.027 49.2943H70.0542L54.5113 111.466H27.3111L42.8541 49.2943ZM116.575 113.242C109.322 113.242 103.031 112.169 97.7019 110.023C92.3729 107.876 88.3021 104.916 85.4896 101.141C82.677 97.2924 81.2708 92.8886 81.2708 87.9296C81.2708 80.5282 83.3432 74.3481 87.4879 69.3891C91.6327 64.3562 97.1838 60.6185 104.141 58.176C111.172 55.6595 118.944 54.4013 127.455 54.4013C134.265 54.4013 140.297 55.2525 145.552 56.9548C150.881 58.5831 155.026 60.9886 157.986 64.1711C161.021 67.2797 162.538 71.0174 162.538 75.3843C162.538 79.085 161.465 82.9337 159.318 86.9304H105.917C105.991 90.2611 107.472 92.7775 110.358 94.4799C113.319 96.1822 117.575 97.0333 123.126 97.0333C126.16 97.0333 129.676 96.7003 133.673 96.0342C137.669 95.294 141.333 94.3318 144.664 93.1476L141.777 109.69C138.299 110.8 134.302 111.651 129.787 112.243C125.272 112.909 120.868 113.242 116.575 113.242ZM138.78 80.3802C138.854 79.9361 138.891 79.344 138.891 78.6039C138.891 75.7913 137.817 73.6449 135.671 72.1647C133.525 70.6104 130.453 69.8332 126.456 69.8332C121.275 69.8332 116.946 70.9804 113.467 73.2749C110.062 75.5693 107.805 78.4558 106.695 81.9345L138.78 80.3802ZM206.495 28.3114L185.734 111.466H161.087L181.848 28.3114H206.495ZM235.619 113.242C228.366 113.242 222.075 112.169 216.746 110.023C211.417 107.876 207.346 104.916 204.534 101.141C201.721 97.2924 200.315 92.8886 200.315 87.9296C200.315 80.5282 202.387 74.3481 206.532 69.3891C210.677 64.3562 216.228 60.6185 223.185 58.176C230.216 55.6595 237.988 54.4013 246.499 54.4013C253.309 54.4013 259.341 55.2525 264.596 56.9548C269.925 58.5831 274.07 60.9886 277.03 64.1711C280.065 67.2797 281.582 71.0174 281.582 75.3843C281.582 79.085 280.509 82.9337 278.362 86.9304H224.961C225.035 90.2611 226.516 92.7775 229.402 94.4799C232.363 96.1822 236.619 97.0333 242.17 97.0333C245.204 97.0333 248.72 96.7003 252.717 96.0342C256.713 95.294 260.377 94.3318 263.708 93.1476L260.821 109.69C257.342 110.8 253.346 111.651 248.831 112.243C244.316 112.909 239.912 113.242 235.619 113.242ZM257.824 80.3802C257.898 79.9361 257.935 79.344 257.935 78.6039C257.935 75.7913 256.861 73.6449 254.715 72.1647C252.569 70.6104 249.497 69.8332 245.5 69.8332C240.319 69.8332 235.989 70.9804 232.511 73.2749C229.106 75.5693 226.849 78.4558 225.738 81.9345L257.824 80.3802ZM341.526 71.7206C347.595 71.7206 352.072 70.6474 354.959 68.501C357.92 66.2805 359.4 63.246 359.4 59.3973C359.4 54.0682 354.811 51.4037 345.633 51.4037H322.43L317.434 71.7206H341.526ZM299.56 33.7514H350.074C358.142 33.7514 365.025 34.7876 370.724 36.86C376.497 38.8584 380.864 41.6709 383.824 45.2976C386.785 48.8503 388.265 53.0321 388.265 57.843C388.265 66.2805 384.75 73.5339 377.718 79.6031C370.761 85.5982 358.401 88.5958 340.637 88.5958H313.215L307.553 111.466H280.242L299.56 33.7514ZM414.664 56.0666V79.27H415.441C420.03 62.7649 428.801 54.5123 441.753 54.5123C445.306 54.5123 448.932 55.0304 452.633 56.0666L446.749 75.4953C441.864 73.793 437.423 72.9418 433.427 72.9418C427.727 72.9418 423.176 74.6441 419.771 78.0488C416.366 81.4534 413.813 86.4864 412.111 93.1476V93.0366L407.559 111.466H382.912L396.679 56.0666H414.664ZM485.239 113.131C477.467 113.131 470.769 112.132 465.144 110.134C459.593 108.061 455.337 105.175 452.376 101.474C449.416 97.7735 447.936 93.4807 447.936 88.5958C447.936 83.1187 449.453 77.8267 452.487 72.7198C455.522 67.5388 460.74 63.209 468.141 59.7303C475.617 56.1776 485.498 54.4013 497.784 54.4013C505.629 54.4013 512.328 55.4375 517.879 57.5099C523.504 59.5083 527.76 62.3578 530.646 66.0585C533.607 69.7592 535.087 74.089 535.087 79.048C535.087 84.525 533.57 89.854 530.535 95.035C527.501 100.142 522.246 104.435 514.77 107.913C507.369 111.392 497.525 113.131 485.239 113.131ZM472.915 86.8194C472.915 89.854 474.248 92.2224 476.912 93.9248C479.577 95.6271 483.388 96.4782 488.347 96.4782C493.602 96.4782 497.821 95.6641 501.004 94.0358C504.26 92.3335 506.592 90.2981 507.998 87.9296C509.404 85.4872 510.107 83.0817 510.107 80.7133C510.107 77.5307 508.775 75.1252 506.111 73.4969C503.52 71.7946 499.708 70.9434 494.675 70.9434C489.494 70.9434 485.276 71.7946 482.019 73.4969C478.762 75.1252 476.431 77.1606 475.025 79.6031C473.618 82.0455 472.915 84.451 472.915 86.8194Z" fill="#180E01"/>
<path d="M583.923 33.2854L569.49 91.2383H624.668L619.783 111H537.405L556.723 33.2854H583.923ZM650.796 111H626.149L635.586 72.8088H629.813L634.032 55.6006H664.562L650.796 111ZM651.684 49.6054C643.394 49.6054 639.25 47.385 639.25 42.9442C639.25 42.5001 639.324 41.834 639.472 40.9458C640.952 35.1727 646.466 32.2862 656.014 32.2862C664.303 32.2862 668.448 34.4696 668.448 38.8364C668.448 39.4285 668.337 40.1316 668.115 40.9458C666.709 46.7189 661.232 49.6054 651.684 49.6054ZM694.27 55.6006L694.714 77.6937H695.269C697.934 70.1443 702.19 64.2972 708.037 60.1524C713.884 56.0076 720.619 53.9352 728.242 53.9352C736.458 53.9352 742.638 55.6746 746.783 59.1532C751.002 62.5579 753.111 67.2948 753.111 73.3639C753.111 75.8064 752.778 78.4339 752.112 81.2464L744.674 111H720.027L727.354 81.4684C727.65 80.5063 727.798 79.4701 727.798 78.3598C727.798 75.6953 726.688 73.66 724.468 72.2537C722.321 70.7734 719.213 70.0333 715.142 70.0333C709.739 70.0333 705.187 71.2915 701.486 73.808C697.786 76.3245 695.195 79.8771 693.715 84.466L687.165 111H662.518L676.285 55.6006H694.27ZM801.274 27.8453L780.513 111H755.867L776.628 27.8453H801.274ZM823.256 55.6006H853.01L818.038 83.4668L840.909 111H814.375L791.837 81.3574L823.256 55.6006Z" fill="#F19119"/>
</svg>
