<?xml version="1.0" encoding="utf-8"?>
<!-- Generator: Adobe Illustrator 23.0.2, SVG Export Plug-In . SVG Version: 6.00 Build 0)  -->
<svg version="1.1" id="Layer_1" xmlns="http://www.w3.org/2000/svg" xmlns:xlink="http://www.w3.org/1999/xlink" x="0px" y="0px"
	 viewBox="0 0 405.42 590.33" style="enable-background:new 0 0 405.42 590.33;" xml:space="preserve">
<style type="text/css">
	.st0{opacity:0.051;fill:#091C3D;}
</style>
<path class="st0" d="M30.81,202.71c0-94.78,77.11-171.9,171.9-171.9s171.9,77.11,171.9,171.9c0,66.58-38.08,124.4-93.58,152.94
	l-21.95-47.24c37.73-20.2,63.46-60,63.46-105.7c0-66.07-53.76-119.83-119.83-119.83S82.88,136.64,82.88,202.71
	c0,45.42,25.4,85.01,62.73,105.33l-22.1,47.16C68.49,326.51,30.81,268.95,30.81,202.71z M229.65,245.06
	c13.98-8.92,23.28-24.56,23.28-42.34c0-27.69-22.53-50.21-50.21-50.21s-50.21,22.53-50.21,50.21c0,17.57,9.08,33.05,22.78,42.03
	l-16.55,35.31c-26.87-15.34-45.04-44.25-45.04-77.34c0-49.08,39.93-89.02,89.01-89.02c49.09,0,89.02,39.93,89.02,89.02
	c0,33.35-18.44,62.45-45.65,77.7L229.65,245.06z M243.51,430.09h-83.19l11.37-27.04c10.12,1.56,20.47,2.37,31.02,2.37
	c10.03,0,19.88-0.74,29.52-2.16L243.51,430.09z M219.83,373.75c-5.63,0.56-11.34,0.86-17.12,0.86c-6.3,0-12.51-0.36-18.63-1.03
	l17.84-42.43L219.83,373.75z M294.04,383.65c66.02-33.46,111.39-102,111.39-180.94C405.42,90.94,314.49,0,202.71,0
	C90.94,0,0,90.94,0,202.71c0,78.55,44.92,146.82,110.41,180.45L25.04,565.36c-2.26,4.82-1.87,10.45,1.02,14.91s7.87,7.18,13.19,7.03
	l47.01-0.8c8.33-0.14,15.04-6.98,15.15-15.31c0-0.2,0.38-19.86,12.87-38.77c16.49-24.99,46.22-37.66,88.35-37.66
	c42.03,0,71.59,13.22,87.87,39.3c12.43,19.92,12.65,40.62,12.65,40.75c-0.03,4.11,1.58,8.05,4.47,10.97
	c2.89,2.92,6.83,4.55,10.93,4.55h47.36c5.26,0,10.16-2.68,12.99-7.12c2.83-4.44,3.2-10.01,0.98-14.78L294.04,383.65z"/>
</svg>
