<svg width="1000" height="1000" viewBox="0 0 1000 1000" fill="none" xmlns="http://www.w3.org/2000/svg">
<g clip-path="url(#clip0_4001_472)">
<rect width="1000" height="1000" rx="500" fill="#F19119"/>
<path d="M373.534 625.922C76.6562 676.063 129.435 526.962 192.765 472.863C-44.7359 652.312 188.817 743.356 469.861 654.951C775.226 573.104 975.468 396.679 779.073 397.456C773.14 397.48 767.338 400.412 763.714 405.11C635.884 570.816 407.898 669.465 234.989 669.465C307.56 658.909 329.996 650.993 373.534 625.922Z" fill="white"/>
<mask id="mask0_4001_472" style="mask-type:alpha" maskUnits="userSpaceOnUse" x="94" y="397" width="764" height="293">
<path d="M373.534 625.922C76.6562 676.063 129.435 526.962 192.765 472.863C-44.7359 652.312 188.817 743.356 469.861 654.951C775.226 573.104 975.468 396.679 779.073 397.456C773.14 397.48 767.338 400.412 763.714 405.11C635.884 570.816 407.898 669.465 234.989 669.465C307.56 658.909 329.996 650.993 373.534 625.922Z" fill="#004AE5"/>
</mask>
<g mask="url(#mask0_4001_472)">
<path d="M771.618 439.4C667.208 527.831 599.543 567.431 473.819 617.98L782.67 373.255C784.211 372.034 786.336 371.862 788.054 372.819L873.22 420.269C875.609 421.599 876.43 424.638 875.037 426.991L818.928 521.752C818.454 522.552 817.747 523.207 816.916 523.625C613.113 626.085 477.542 670.795 365.62 687.912C667.782 583.674 749.589 526.936 803.686 480.754C827.508 458.187 827.503 421.324 784.43 432.422C779.69 433.644 775.353 436.236 771.618 439.4Z" fill="url(#paint0_linear_4001_472)"/>
<path d="M176.937 454.368C105.245 537.495 34.4332 689.235 376.178 631.178C707.172 574.947 382.336 498.79 176.937 454.368Z" fill="#0A0601"/>
</g>
<path d="M236.311 356.726C215.2 391.032 207.283 463.163 207.283 493.951C256.103 464.923 302.285 449.089 366.94 445.131C341.87 492.632 331.314 566.523 328.675 621.941C356.384 621.941 366.94 616.663 382.773 608.746V629.858C422.358 617.982 454.025 606.107 488.332 584.995C502.846 519.021 518.68 483.395 543.75 431.936C803.687 396.31 736.394 326.377 634.794 309.224C517.36 286.793 332.633 313.183 236.311 356.726Z" fill="#0A0601"/>
<mask id="mask1_4001_472" style="mask-type:alpha" maskUnits="userSpaceOnUse" x="207" y="301" width="518" height="329">
<path d="M236.311 356.726C215.2 391.032 207.283 463.163 207.283 493.951C256.103 464.923 302.285 449.089 366.94 445.131C341.87 492.632 331.314 566.523 328.675 621.941C356.384 621.941 366.94 616.663 382.773 608.746V629.858C422.358 617.982 454.025 606.107 488.332 584.995C502.846 519.021 518.68 483.395 543.75 431.936C803.687 396.31 736.394 326.377 634.794 309.224C517.36 286.793 332.633 313.183 236.311 356.726Z" fill="#004AE5"/>
</mask>
<g mask="url(#mask1_4001_472)">
<path d="M705.466 389.764C595.232 322.653 309.149 379.237 202.852 498.985L219.912 341.076C363.391 305.108 521.743 245.015 698.904 314.757C746.147 372.657 726.462 385.817 705.466 389.764Z" fill="white"/>
<mask id="mask2_4001_472" style="mask-type:alpha" maskUnits="userSpaceOnUse" x="202" y="282" width="527" height="217">
<path d="M705.466 389.764C595.232 322.653 309.149 379.237 202.852 498.985L219.912 341.076C363.391 305.108 521.743 245.015 698.904 314.757C746.147 372.657 726.462 385.817 705.466 389.764Z" fill="#5A91F6"/>
</mask>
<g mask="url(#mask2_4001_472)">
<path opacity="0.25" d="M508.64 358.163C345.025 377.955 264.097 441.29 261.898 466.36C445.305 368.696 587.809 359.482 709.201 391.149C682.372 355.084 587.809 344.968 508.64 358.163Z" fill="white"/>
</g>
<path d="M472.5 405.543C472.5 405.543 538.474 397.627 560.905 397.626C517.363 475.476 493.612 592.909 493.612 592.909L406.526 627.216L382.776 629.855C390.693 552.006 412.202 487.351 421.041 454.364C430.277 424.016 451.389 408.182 472.5 405.543Z" fill="white"/>
<mask id="mask3_4001_472" style="mask-type:alpha" maskUnits="userSpaceOnUse" x="382" y="397" width="179" height="233">
<path d="M472.5 405.543C472.5 405.543 538.474 397.627 560.905 397.626C517.363 475.476 493.612 592.909 493.612 592.909L406.526 627.216L382.776 629.855C390.693 552.006 412.202 487.351 421.041 454.364C430.277 424.016 451.389 408.182 472.5 405.543Z" fill="#004AE5"/>
</mask>
<g mask="url(#mask3_4001_472)">
<path opacity="0.25" d="M477.861 399.371C482.483 397.281 486.79 396.261 490.499 396.065L477.861 399.371C461.652 406.698 441.565 427.168 429.803 471.276C414.254 529.586 405.067 576.444 392.245 641.842L391.538 645.447H366.468L404.733 418.497L477.861 399.371Z" fill="white"/>
</g>
</g>
<path d="M348.467 699.792C395.971 695.834 424.999 691.875 472.498 668.125C472.498 668.125 457.984 728.821 489.651 728.821C521.319 728.821 574.098 670.764 591.251 653.611C646.671 614.026 696.809 596.873 696.809 596.873C696.809 596.873 616.321 748.613 483.054 775.003C407.846 795.154 355.067 736.738 348.467 699.792Z" fill="white"/>
<mask id="mask4_4001_472" style="mask-type:alpha" maskUnits="userSpaceOnUse" x="348" y="596" width="349" height="184">
<path d="M348.469 699.793C395.973 695.834 425.001 691.876 472.5 668.125C472.5 668.125 457.986 728.821 489.653 728.821C521.321 728.821 574.1 670.764 591.253 653.611C646.673 614.027 696.811 596.874 696.811 596.874C696.811 596.874 616.323 748.614 483.056 775.003C407.848 795.155 355.069 736.738 348.469 699.793Z" fill="url(#paint1_linear_4001_472)"/>
</mask>
<g mask="url(#mask4_4001_472)">
<path opacity="0.25" d="M535.361 780.031C671.792 687.575 708.492 613.326 698.977 590.027C605.294 724.614 423.206 847.326 347.996 696.905C337.44 725.933 349.315 824.894 535.361 780.031Z" fill="white"/>
</g>
<path fill-rule="evenodd" clip-rule="evenodd" d="M730.11 307.194C776.72 303.687 791.037 347.61 791.08 347.742C797.677 371.493 779.732 375.715 771.287 355.659C763.719 337.686 748.523 322.256 729.305 311.648C727.228 310.502 727.744 307.373 730.11 307.194ZM709.272 261.976C739.62 258.017 845.051 272.533 857.054 334.548C864.971 375.452 835.943 366.215 831.984 354.341L831.882 354.053C823.941 331.55 809.147 289.624 714.551 275.172C701.796 273.412 690.8 267.254 709.272 261.976ZM704.422 225.056C732.884 213.806 871.175 214.005 897.959 271.212C915.624 308.944 883.077 303.452 878.48 296.527C865.326 276.708 808.434 227.438 712.763 236.562C699.965 237.971 687.798 234.685 704.422 225.056Z" fill="#0A0601"/>
</g>
<defs>
<linearGradient id="paint0_linear_4001_472" x1="865.704" y1="367.279" x2="483.055" y2="681.315" gradientUnits="userSpaceOnUse">
<stop stop-color="white"/>
<stop offset="1" stop-color="white" stop-opacity="0"/>
</linearGradient>
<linearGradient id="paint1_linear_4001_472" x1="369.11" y1="743.088" x2="696.341" y2="596.626" gradientUnits="userSpaceOnUse">
<stop stop-color="#495DFA"/>
<stop offset="0.482903" stop-color="#8637EF"/>
<stop offset="1" stop-color="#7930CA"/>
</linearGradient>
<clipPath id="clip0_4001_472">
<rect width="1000" height="1000" rx="500" fill="white"/>
</clipPath>
</defs>
</svg>
